<?xml version="1.0" standalone="no"?>
<!DOCTYPE svg PUBLIC "-//W3C//DTD SVG 20010904//EN"
 "http://www.w3.org/TR/2001/REC-SVG-20010904/DTD/svg10.dtd">
<svg version="1.0" xmlns="http://www.w3.org/2000/svg"
 width="177.000000pt" height="48.000000pt" viewBox="0 0 177.000000 48.000000"
 preserveAspectRatio="xMidYMid meet">

<g transform="translate(0.000000,48.000000) scale(0.100000,-0.100000)"
fill="#000000" stroke="none">
<path d="M200 460 c-178 -33 -245 -259 -113 -381 46 -43 91 -61 152 -61 66 0
96 10 140 48 27 22 30 29 18 36 -10 5 -32 0 -63 -17 -86 -46 -189 -22 -241 57
-37 55 -37 141 0 196 52 79 155 103 242 56 32 -17 51 -22 58 -15 14 14 -7 38
-52 60 -44 22 -95 30 -141 21z"/>
<path d="M217 368 c-3 -12 -4 -25 -1 -30 6 -10 27 -11 21 0 -3 4 -1 16 4 27 7
19 8 19 8 -2 1 -22 31 -35 31 -14 0 43 -53 59 -63 19z"/>
<path d="M160 345 c0 -8 9 -15 20 -15 11 0 20 2 20 5 0 2 -9 9 -20 15 -16 9
-20 8 -20 -5z"/>
<path d="M304 338 c-10 -12 -13 -18 -6 -14 18 11 48 -14 30 -25 -10 -7 -9 -9
4 -9 28 0 41 34 19 54 -23 20 -24 20 -47 -6z m46 -2 c0 -3 -4 -8 -10 -11 -5
-3 -10 -1 -10 4 0 6 5 11 10 11 6 0 10 -2 10 -4z"/>
<path d="M134 314 c3 -8 6 -18 6 -20 0 -2 8 -4 18 -3 10 0 12 3 4 6 -6 2 -10
8 -7 13 3 4 -2 11 -11 14 -12 5 -15 2 -10 -10z"/>
<path d="M475 295 c-51 -50 -15 -135 57 -135 18 0 41 7 51 14 15 11 15 15 3
25 -10 8 -16 9 -21 1 -12 -19 -63 -12 -75 11 -26 48 25 99 71 71 26 -16 38 7
14 25 -29 21 -73 16 -100 -12z"/>
<path d="M600 315 c0 -2 14 -26 30 -52 17 -26 30 -60 30 -75 0 -15 5 -28 10
-28 6 0 10 12 10 28 0 15 14 47 30 72 34 51 36 60 15 60 -8 0 -21 -13 -30 -30
-9 -16 -19 -30 -23 -30 -4 0 -16 14 -25 30 -10 17 -25 30 -33 30 -8 0 -14 -2
-14 -5z"/>
<path d="M770 240 l0 -80 39 0 c50 0 60 14 58 76 -3 62 -19 84 -63 84 l-34 0
0 -80z m60 45 c15 -18 5 -35 -21 -35 -12 0 -19 7 -19 18 0 33 20 42 40 17z
m14 -70 c6 -16 -28 -40 -44 -30 -6 3 -10 15 -10 26 0 23 45 27 54 4z"/>
<path d="M900 240 l0 -80 50 0 c38 0 50 4 50 15 0 10 -11 15 -35 15 -28 0 -35
4 -35 20 0 16 7 20 35 20 19 0 35 5 35 10 0 6 -16 10 -35 10 -28 0 -35 4 -35
20 0 16 7 20 35 20 24 0 35 5 35 15 0 11 -12 15 -50 15 l-50 0 0 -80z"/>
<path d="M1030 240 c0 -47 4 -80 10 -80 6 0 10 14 10 30 0 23 5 30 19 30 12 0
23 -11 30 -30 5 -17 17 -30 26 -30 14 0 14 4 0 37 -11 25 -12 40 -5 47 17 17
11 55 -9 66 -11 5 -33 10 -50 10 l-31 0 0 -80z m54 54 c27 -10 20 -44 -9 -44
-18 0 -25 5 -25 18 0 29 9 36 34 26z"/>
<path d="M1220 240 c0 -63 3 -80 14 -80 11 0 16 15 18 53 l3 52 19 -37 c11
-21 22 -38 26 -38 3 0 16 17 28 38 l22 37 0 -52 c0 -40 4 -53 15 -53 12 0 15
16 15 80 0 92 -16 106 -51 45 -12 -19 -24 -35 -28 -35 -5 0 -16 16 -27 35 -10
20 -26 35 -36 35 -16 0 -18 -10 -18 -80z"/>
<path d="M1410 240 l0 -80 50 0 c38 0 50 4 50 15 0 10 -11 15 -35 15 -28 0
-35 4 -35 20 0 16 7 20 35 20 19 0 35 5 35 10 0 6 -16 10 -35 10 -28 0 -35 4
-35 20 0 16 7 20 35 20 24 0 35 5 35 15 0 11 -12 15 -50 15 l-50 0 0 -80z"/>
<path d="M1530 240 l0 -80 50 0 c38 0 50 4 50 15 0 10 -11 15 -35 15 -28 0
-35 4 -35 20 0 16 7 20 35 20 44 0 46 18 3 22 -22 2 -34 9 -36 21 -3 14 4 17
32 17 25 0 36 4 36 15 0 11 -12 15 -50 15 l-50 0 0 -80z"/>
<path d="M1650 305 c0 -8 9 -15 20 -15 18 0 20 -7 20 -65 0 -51 3 -65 15 -65
12 0 15 14 15 65 0 58 2 65 20 65 11 0 20 7 20 15 0 12 -13 15 -55 15 -42 0
-55 -3 -55 -15z"/>
<path d="M96 255 c-9 -25 5 -45 33 -44 26 0 26 0 4 11 -33 16 -27 35 10 29 4
0 7 4 7 9 0 16 -47 12 -54 -5z"/>
<path d="M365 254 c16 -12 17 -16 6 -23 -8 -5 -9 -11 -3 -15 5 -3 15 1 22 10
15 17 2 36 -27 40 -16 2 -15 1 2 -12z"/>
<path d="M142 178 c-16 -16 -15 -47 2 -54 18 -7 56 13 56 29 0 7 -3 8 -8 2 -4
-5 -15 -11 -25 -13 -14 -2 -17 2 -13 22 5 30 4 30 -12 14z"/>
<path d="M334 173 c2 -10 11 -20 20 -21 15 -3 16 -1 6 17 -13 26 -29 28 -26 4z"/>
<path d="M305 149 c-7 -10 10 -28 28 -29 12 0 8 17 -7 29 -11 9 -16 9 -21 0z"/>
<path d="M210 131 c0 -5 8 -19 18 -31 17 -21 19 -21 35 -5 19 18 23 45 6 45
-5 0 -7 -4 -4 -10 3 -5 1 -10 -5 -10 -6 0 -8 -4 -5 -10 9 -15 -4 -12 -20 4 -8
7 -11 16 -8 20 4 3 1 6 -5 6 -7 0 -12 -4 -12 -9z"/>
</g>
</svg>
